<svg width="21" height="21" viewBox="0 0 21 21" fill="none" xmlns="http://www.w3.org/2000/svg">
<path d="M20.5618 0.438994C20.3731 0.250495 20.1377 0.115687 19.8796 0.0484554C19.6216 -0.0187758 19.3503 -0.0159994 19.0936 0.0564986H19.0796L1.08541 5.51643C0.792501 5.60067 0.532199 5.77214 0.339171 6.00801C0.146142 6.24388 0.0295465 6.53295 0.00490958 6.83674C-0.0197274 7.14053 0.0487636 7.44461 0.201262 7.7085C0.353761 7.97239 0.58303 8.18357 0.858541 8.3139L8.88532 12.1154L12.6868 20.1422C12.8069 20.3993 12.9979 20.6166 13.2375 20.7686C13.477 20.9206 13.755 21.0009 14.0387 21C14.0818 21 14.125 20.9981 14.1681 20.9944C14.4708 20.9699 14.7588 20.8534 14.9934 20.6605C15.228 20.4676 15.398 20.2076 15.4806 19.9153L20.9367 1.92116C20.9367 1.91648 20.9367 1.91179 20.9367 1.9071C21.0102 1.65113 21.0142 1.38023 20.9483 1.12222C20.8824 0.864205 20.7489 0.628389 20.5618 0.438994ZM14.0471 19.486L14.0425 19.4991L10.3525 11.7095L14.7812 7.27985C14.9159 7.13806 14.9899 6.94925 14.9874 6.75368C14.9849 6.55811 14.9061 6.37125 14.7678 6.23295C14.6295 6.09466 14.4426 6.01585 14.2471 6.01335C14.0515 6.01084 13.8627 6.08484 13.7209 6.21955L9.29126 10.6483L1.50072 6.95829H1.51385L19.5005 1.50023L14.0471 19.486Z" fill="white"/>
</svg>
